PathFileType	4	(X/Y/Z)	C:\Users\°ÂÌØÂü\Desktop\20201223\Trimmed_bx_n_5_901.trc
DataRate	CameraRate	NumFrames	NumMarkers	Units	OrigDataRate	OrigDataStartFrame	OrigNumFrames
50.00	50.00	       8	43	mm	50.00	302	       402
Frame#	Time	Top.Head			R.Acromium			L.Acromium			Sternum			R.ASIS			L.ASIS			V.Sacral			R.Thigh.Upper			R.Thigh.Front			R.Thigh.Rear			R.Knee.Lat			R.Knee.Med			R.Shank.Upper			R.Shank.Front			R.Shank.Rear			R.Ankle.Lat			R.Midfoot.Lat			R.Toe.Lat			R.Toe.Tip			R.Toe.Med			R.Ankle.Med			R.Midfoot.Sup			R.Heel			L.Thigh.Upper			L.Thigh.Front			L.Thigh.Rear			L.Knee.Lat			L.Knee.Med			L.Shank.Upper			L.Shank.Front			L.Shank.Rear			L.Ankle.Lat			L.Midfoot.Lat			L.Toe.Lat			L.Toe.Tip			L.Toe.Med			L.Ankle.Med			L.Midfoot.Sup			L.Heel			origin1 front left			origin2 front right			origin 3 back right			origin 4 back leftt			
		X1	Y1	Z1	X2	Y2	Z2	X3	Y3	Z3	X4	Y4	Z4	X5	Y5	Z5	X6	Y6	Z6	X7	Y7	Z7	X8	Y8	Z8	X9	Y9	Z9	X10	Y10	Z10	X11	Y11	Z11	X12	Y12	Z12	X13	Y13	Z13	X14	Y14	Z14	X15	Y15	Z15	X16	Y16	Z16	X17	Y17	Z17	X18	Y18	Z18	X19	Y19	Z19	X20	Y20	Z20	X21	Y21	Z21	X22	Y22	Z22	X23	Y23	Z23	X24	Y24	Z24	X25	Y25	Z25	X26	Y26	Z26	X27	Y27	Z27	X28	Y28	Z28	X29	Y29	Z29	X30	Y30	Z30	X31	Y31	Z31	X32	Y32	Z32	X33	Y33	Z33	X34	Y34	Z34	X35	Y35	Z35	X36	Y36	Z36	X37	Y37	Z37	X38	Y38	Z38	X39	Y39	Z39	X40	Y40	Z40	X41	Y41	Z41	X42	Y42	Z42	X43	Y43	Z43	

302	6.020	-127.47946	238.09917	1317.79810	-326.46939	77.15242	1154.34058	-331.86987	388.73758	1140.25232	-506.01462	231.98314	1101.65271	-748.44135	120.71938	980.67151	-716.51233	344.00146	976.35510	-908.87231	251.29721	1078.81909	-818.72540	75.48638	814.73486	-720.99365	137.19264	807.87848	-786.59979	84.19801	706.49969	-783.83313	112.12553	587.86383	-758.66510	220.92014	550.11670	-792.69861	109.93459	520.10052	-717.32800	166.17535	526.00439	-784.64478	101.46547	468.27917	-695.81177	133.72804	209.92072	-606.80054	84.78841	162.14865	-558.32147	67.59821	159.94011	-485.45401	121.59368	157.92310	-534.76208	166.72919	164.29948	-658.60309	214.54446	225.55788	-603.38367	196.30937	175.78545	-731.06232	197.22940	169.90582	-797.83746	438.69162	841.12329	-709.68372	379.23840	808.80377	-790.83582	432.17047	722.82654	-772.60773	407.14713	589.98804	-749.87427	309.81616	545.05353	-775.91205	410.47620	543.76581	-715.37854	351.29947	532.20978	-810.27515	414.98157	468.12885	-685.86945	408.84396	212.67386	-581.16534	451.96753	161.89049	-543.64368	462.36462	157.07501	-482.50851	406.29324	165.17337	-526.83667	370.34708	176.56998	-654.80750	317.21423	211.99951	-597.54388	333.23639	174.22525	-734.30133	337.97598	161.99707	-443.96936	448.42664	146.26735	-450.64813	74.81842	143.22603	-806.24847	82.16631	140.95009	-799.62274	456.55331	144.85156	
303	6.040	-124.56403	238.56595	1306.86499	-323.80627	78.12661	1145.36267	-329.60651	390.23239	1131.35364	-505.45374	231.91187	1097.82166	-749.03448	120.98871	979.60254	-717.26263	344.23938	975.08282	-908.82806	251.30177	1079.16931	-819.42139	75.54559	814.51709	-721.82507	137.45207	807.71716	-787.12653	84.26587	706.31647	-784.19135	112.21361	587.78351	-759.16992	220.98613	549.99481	-792.93964	110.07280	519.88336	-717.68408	166.33380	525.99005	-784.84668	101.52619	468.21521	-695.78967	133.76994	209.94243	-606.78320	84.85583	162.19312	-558.32404	67.62758	159.94733	-485.43143	121.64700	157.89572	-534.73401	166.80101	164.24217	-658.59344	214.60211	225.58705	-603.36121	196.31567	175.79636	-731.04236	197.23029	169.91846	-798.75214	438.88046	840.90027	-710.55103	379.35812	808.53040	-791.56519	432.37885	722.64069	-773.26141	407.24753	589.78558	-750.96741	309.98825	544.81702	-776.46027	410.62729	543.66833	-715.90918	351.36728	532.10162	-810.69006	415.05746	467.90405	-685.85150	409.02051	212.77271	-581.14185	451.94989	161.88522	-543.62317	462.39658	157.06627	-482.50388	406.29742	165.16121	-526.85876	370.30820	176.56989	-654.94067	317.27722	212.03069	-597.53894	333.21771	174.24663	-734.29913	338.00262	162.03604	-443.97461	448.42099	146.27634	-450.64835	74.81293	143.21889	-806.24799	82.17449	140.94809	-799.63403	456.54916	144.85344	
304	6.060	-121.77209	239.14354	1296.46240	-321.33148	79.08076	1136.99268	-327.54330	391.59299	1122.99683	-504.88327	231.84665	1094.10962	-749.44775	121.20791	978.61926	-717.86023	344.43152	973.94409	-908.64783	251.21577	1079.52576	-819.91510	75.55499	814.34137	-722.44696	137.64227	807.59332	-787.49536	84.25317	706.19312	-784.43488	112.23288	587.73633	-759.56775	221.02509	549.89844	-793.08093	110.15992	519.69843	-717.94891	166.43048	525.98438	-784.93988	101.54256	468.17520	-695.73749	133.80440	209.97124	-606.75104	84.91998	162.25917	-558.32227	67.65885	159.94963	-485.39261	121.69662	157.85718	-534.70258	166.87662	164.19281	-658.58221	214.65581	225.63338	-603.34747	196.31995	175.80244	-731.02289	197.21774	169.93953	-799.51678	438.99286	840.72681	-711.26263	379.42590	808.30579	-792.15088	432.52399	722.49609	-773.79919	407.28482	589.62140	-752.02820	310.13257	544.60931	-776.88763	410.75110	543.63593	-716.32263	351.39224	532.03778	-811.03113	415.09067	467.73441	-685.83679	409.16528	212.87949	-581.11072	451.91208	161.89848	-543.60333	462.42236	157.05353	-482.49692	406.29999	165.14735	-526.87415	370.27332	176.56531	-655.02917	317.29028	212.07938	-597.53442	333.19022	174.25862	-734.28534	338.02118	162.07640	-443.97733	448.41757	146.28679	-450.64822	74.80920	143.21318	-806.25012	82.18141	140.94450	-799.64050	456.53952	144.85822	
305	6.080	-119.10947	239.79944	1286.65479	-319.02448	80.00679	1129.26294	-325.63000	391.95398	1115.24622	-504.30374	231.78741	1090.51709	-749.69470	121.36938	977.72961	-718.31543	344.56619	972.94073	-908.34778	251.04362	1079.88269	-820.22021	75.50922	814.21051	-722.86572	137.76361	807.51074	-787.71228	84.15768	706.13348	-784.55652	112.18378	587.72632	-759.84924	221.03983	549.83435	-793.12079	110.18209	519.56659	-718.11951	166.46837	525.99243	-784.91974	101.50890	468.15555	-695.65814	133.83409	210.00214	-606.69958	84.98677	162.34494	-558.31116	67.69126	159.94957	-485.33661	121.73837	157.80902	-534.66907	166.95432	164.15324	-658.56885	214.70491	225.69212	-603.34161	196.32355	175.80331	-731.00275	197.19125	169.97498	-800.13629	439.02243	840.60840	-711.82556	379.43243	808.13757	-792.59790	432.60355	722.39056	-774.21130	407.26202	589.50586	-753.05652	310.24979	544.42975	-777.19763	410.83585	543.66205	-716.62103	351.37152	532.02313	-811.28912	415.08118	467.62372	-685.82727	409.27066	212.98781	-581.06854	451.85492	161.93115	-543.58264	462.43991	157.03760	-482.48819	406.30072	165.13263	-526.88043	370.24246	176.55280	-655.06042	317.26001	212.13933	-597.52924	333.15558	174.26146	-734.25403	338.03262	162.12137	-443.97711	448.41696	146.29514	-450.64713	74.80804	143.21106	-806.25323	82.18594	140.94067	-799.64148	456.52634	144.86482	
306	6.100	-116.58652	240.50031	1277.49707	-316.86810	80.89610	1122.18347	-323.81787	390.35287	1108.14612	-503.71564	231.73410	1087.04395	-749.79193	121.47227	976.93506	-718.64282	344.63403	972.06396	-907.94885	250.79451	1080.23560	-820.35815	75.40360	814.12549	-723.09918	137.82147	807.46851	-787.79089	83.98584	706.13336	-784.55750	112.07308	587.75116	-760.01794	221.03139	549.80347	-793.06482	110.13032	519.50000	-718.19940	166.45531	526.01428	-784.79279	101.42321	468.14792	-695.55963	133.85886	210.02821	-606.62903	85.06149	162.44485	-558.28809	67.72327	159.94981	-485.26620	121.76977	157.75505	-534.63556	167.03151	164.12354	-658.55634	214.74890	225.75537	-603.34167	196.32750	175.79976	-730.98260	197.15163	170.02516	-800.62207	438.96936	840.54639	-712.25507	379.36926	808.02734	-792.91949	432.61685	722.32037	-774.49500	407.18787	589.44604	-754.05212	310.34058	544.27771	-777.40277	410.87082	543.73499	-716.81274	351.30621	532.05591	-811.46185	415.03244	467.56943	-685.82373	409.33444	213.09082	-581.01465	451.78275	161.98161	-543.56030	462.44778	157.02025	-482.47879	406.30020	165.11867	-526.87799	370.21475	176.53035	-655.02759	317.19992	212.20143	-597.52277	333.11487	174.25504	-734.20428	338.03824	162.17230	-443.97394	448.41904	146.29857	-450.64487	74.80989	143.21375	-806.25580	82.18787	140.93752	-799.63654	456.51407	144.87318	
307	6.120	-114.21741	241.21555	1269.02612	-314.85019	81.73916	1115.74011	-322.06985	386.03531	1101.70557	-503.11942	231.68666	1083.69055	-749.75879	121.52161	976.23010	-718.86212	344.63010	971.29547	-907.47559	250.48026	1080.58093	-820.35760	75.23563	814.08398	-723.17566	137.82489	807.45972	-787.75305	83.75179	706.17944	-784.45026	111.91266	587.80206	-760.09039	220.99837	549.79993	-792.92743	110.00261	519.49884	-718.19971	166.40125	526.04376	-784.57861	101.28754	468.14090	-695.45380	133.87511	210.04259	-606.54468	85.14626	162.55042	-558.25366	67.75233	159.95222	-485.18741	121.79041	157.70052	-534.60443	167.10451	164.10231	-658.55164	214.78712	225.81374	-603.34479	196.33220	175.79329	-730.96472	197.10088	170.08459	-800.99243	438.84122	840.53705	-712.57312	379.23236	807.96918	-793.13690	432.56604	722.28009	-774.65704	407.07465	589.44299	-755.01489	310.40561	544.15247	-777.52209	410.84854	543.83850	-716.91180	351.20142	532.12762	-811.55481	414.95053	467.56274	-685.82507	409.36011	213.18239	-580.95129	451.70255	162.04597	-543.53613	462.44553	157.00383	-482.47021	406.29941	165.10753	-526.86945	370.18875	176.49806	-654.93134	317.12723	212.25494	-597.51550	333.06909	174.23885	-734.14044	338.03949	162.22768	-443.96808	448.42316	146.29564	-450.64188	74.81455	143.22131	-806.25690	82.18780	140.93530	-799.62567	456.50903	144.88451	
308	6.140	-112.01767	241.91949	1261.25549	-312.96432	82.52606	1109.89697	-320.37061	378.78558	1095.88574	-502.51556	231.64503	1080.45703	-749.61639	121.52538	975.60388	-718.99750	344.55554	970.61108	-906.95410	250.11337	1080.91516	-820.25317	75.00623	814.07941	-723.13135	137.78433	807.47211	-787.62775	83.47444	706.25098	-784.25928	111.71696	587.86499	-760.09387	220.93698	549.81238	-792.73145	109.80491	519.55078	-718.13831	166.31532	526.07007	-784.30823	101.10767	468.12296	-695.35406	133.87686	210.03981	-606.45587	85.23836	162.65131	-558.21143	67.77502	159.95723	-485.10855	121.80206	157.65109	-534.57825	167.16856	164.08734	-658.56409	214.81862	225.85837	-603.34802	196.33736	175.78581	-730.95221	197.04184	170.14322	-801.27002	438.65195	840.57214	-712.80530	379.02478	807.95013	-793.27643	432.45642	722.26312	-774.71295	406.93555	589.48975	-755.94452	310.44559	544.05341	-777.57697	410.76675	543.95288	-716.93665	351.06583	532.22412	-811.57947	414.84344	467.59018	-685.82947	409.35593	213.25801	-580.88318	451.62222	162.11871	-543.51074	462.43372	156.99075	-482.46417	406.29968	165.10088	-526.85889	370.16302	176.45837	-654.78088	317.05878	212.28917	-597.50879	333.01923	174.21233	-734.07147	338.03848	162.28305	-443.95990	448.42856	146.28662	-450.63901	74.82112	143.23256	-806.25629	82.18668	140.93375	-799.60907	456.51752	144.90063	
309	6.160	-110.00223	242.59201	1254.17236	-311.20871	83.24757	1104.59949	-318.73096	369.15695	1090.59436	-501.90460	231.60918	1077.34363	-749.38739	121.49059	975.04346	-719.07495	344.41794	969.98578	-906.40991	249.70573	1081.23450	-820.08289	74.72068	814.10120	-723.00696	137.70911	807.48914	-787.44806	83.17367	706.32330	-784.01837	111.49998	587.92358	-760.06067	220.84203	549.82666	-792.50604	109.55054	519.63391	-718.03760	166.20355	526.08069	-784.02026	100.89225	468.08514	-695.27325	133.85754	210.01683	-606.37476	85.32970	162.73688	-558.16693	67.78769	159.96370	-485.03876	121.80817	157.61176	-534.55939	167.21837	164.07654	-658.60327	214.84171	225.88277	-603.34918	196.34209	175.77907	-730.94800	196.97762	170.18881	-801.47913	438.41956	840.63947	-712.97681	378.75739	807.95233	-793.36487	432.29678	722.26221	-774.68494	406.78259	589.57220	-756.84088	310.46112	543.97980	-777.58746	410.62991	544.05750	-716.90814	350.91037	532.32819	-811.55115	414.72052	467.63602	-685.83435	409.33301	213.31516	-580.81610	451.54901	162.19357	-543.48572	462.41391	156.98289	-482.46216	406.30234	165.09932	-526.85028	370.13678	176.41580	-654.59375	317.00742	212.29565	-597.50446	332.96640	174.17551	-734.00885	338.03775	162.33176	-443.94989	448.43442	146.27344	-450.63742	74.82811	143.24545	-806.25458	82.18538	140.93228	-799.58740	456.54364	144.92276	
